HIERARCHY
ROOT Hips
{
	OFFSET 0.000000 100.481300 0.000000
	CHANNELS 6 Xposition Yposition Zposition Xrotation Yrotation Zrotation
	JOINT Spine
	{
		OFFSET -0.279200 12.230698 -2.892100
		CHANNELS 3 Xrotation Yrotation Zrotation
		JOINT Spine1
		{
			OFFSET -0.325700 14.269203 -3.374200
			CHANNELS 3 Xrotation Yrotation Zrotation
			JOINT Spine2
			{
				OFFSET -0.372300 16.307602 -0.352600
				CHANNELS 3 Xrotation Yrotation Zrotation
				JOINT Neck
				{
					OFFSET -0.418800 17.814194 8.416900
					CHANNELS 3 Xrotation Yrotation Zrotation
					JOINT Head
					{
						OFFSET 0.000000 7.031097 3.806800
						CHANNELS 3 Xrotation Yrotation Zrotation
						JOINT HeadTop_End
						{
							OFFSET 0.000000 24.646606 12.978600
							CHANNELS 3 Xrotation Yrotation Zrotation
							End Site
							{
								OFFSET 0.000000 27.854965 0.000000
							}
						}
					}
				}
				JOINT LeftShoulder
				{
					OFFSET 16.952999 14.495407 -7.737500
					CHANNELS 3 Xrotation Yrotation Zrotation
					JOINT LeftArm
					{
						OFFSET 9.308998 -2.777710 0.208600
						CHANNELS 3 Xrotation Yrotation Zrotation
						JOINT LeftForeArm
						{
							OFFSET 29.972298 0.000000 0.000000
							CHANNELS 3 Xrotation Yrotation Zrotation
							JOINT LeftHand
							{
								OFFSET 26.026505 0.000000 0.000000
								CHANNELS 3 Xrotation Yrotation Zrotation
								JOINT LeftHandThumb1
								{
									OFFSET 12.240501 -7.147949 9.207150
									CHANNELS 3 Xrotation Yrotation Zrotation
									JOINT LeftHandThumb2
									{
										OFFSET 4.138618 -2.389435 2.389433
										CHANNELS 3 Xrotation Yrotation Zrotation
										JOINT LeftHandThumb3
										{
											OFFSET 2.726913 -1.574387 1.574386
											CHANNELS 3 Xrotation Yrotation Zrotation
											JOINT LeftHandThumb4
											{
												OFFSET 3.941010 -2.275345 2.275342
												CHANNELS 3 Xrotation Yrotation Zrotation
												End Site
												{
													OFFSET -0.005798 5.087799 0.009903
												}
											}
										}
									}
								}
								JOINT LeftHandIndex1
								{
									OFFSET 24.424698 -1.985611 5.953459
									CHANNELS 3 Xrotation Yrotation Zrotation
									JOINT LeftHandIndex2
									{
										OFFSET 6.426697 0.000000 0.000000
										CHANNELS 3 Xrotation Yrotation Zrotation
										JOINT LeftHandIndex3
										{
											OFFSET 5.337898 0.000000 0.000000
											CHANNELS 3 Xrotation Yrotation Zrotation
											JOINT LeftHandIndex4
											{
												OFFSET 4.409401 0.000000 0.000000
												CHANNELS 3 Xrotation Yrotation Zrotation
												End Site
												{
													OFFSET 0.000000 4.409363 0.014373
												}
											}
										}
									}
								}
								JOINT LeftHandMiddle1
								{
									OFFSET 23.810104 0.000000 0.000000
									CHANNELS 3 Xrotation Yrotation Zrotation
									JOINT LeftHandMiddle2
									{
										OFFSET 7.176498 0.000000 0.000000
										CHANNELS 3 Xrotation Yrotation Zrotation
										JOINT LeftHandMiddle3
										{
											OFFSET 6.774902 0.000000 0.000000
											CHANNELS 3 Xrotation Yrotation Zrotation
											JOINT LeftHandMiddle4
											{
												OFFSET 5.403328 0.000000 0.000000
												CHANNELS 3 Xrotation Yrotation Zrotation
												End Site
												{
													OFFSET -0.027702 5.403244 0.017414
												}
											}
										}
									}
								}
								JOINT LeftHandRing1
								{
									OFFSET 22.908401 -0.839279 -6.020567
									CHANNELS 3 Xrotation Yrotation Zrotation
									JOINT LeftHandRing2
									{
										OFFSET 6.337502 0.000000 0.000000
										CHANNELS 3 Xrotation Yrotation Zrotation
										JOINT LeftHandRing3
										{
											OFFSET 5.779297 0.000000 0.000000
											CHANNELS 3 Xrotation Yrotation Zrotation
											JOINT LeftHandRing4
											{
												OFFSET 4.965698 0.000000 0.000000
												CHANNELS 3 Xrotation Yrotation Zrotation
												End Site
												{
													OFFSET 0.000000 4.965668 0.016186
												}
											}
										}
									}
								}
								JOINT LeftHandPinky1
								{
									OFFSET 20.037003 -1.530319 -10.950146
									CHANNELS 3 Xrotation Yrotation Zrotation
									JOINT LeftHandPinky2
									{
										OFFSET 5.254700 0.000000 0.000000
										CHANNELS 3 Xrotation Yrotation Zrotation
										JOINT LeftHandPinky3
										{
											OFFSET 4.810204 0.000000 0.000000
											CHANNELS 3 Xrotation Yrotation Zrotation
											JOINT LeftHandPinky4
											{
												OFFSET 3.647202 0.000000 0.000000
												CHANNELS 3 Xrotation Yrotation Zrotation
												End Site
												{
													OFFSET 0.000000 3.647186 0.011889
												}
											}
										}
									}
								}
							}
						}
					}
				}
				JOINT RightShoulder
				{
					OFFSET -15.141001 14.495407 -7.737500
					CHANNELS 3 Xrotation Yrotation Zrotation
					JOINT RightArm
					{
						OFFSET -9.308998 -2.777710 0.208500
						CHANNELS 3 Xrotation Yrotation Zrotation
						JOINT RightForeArm
						{
							OFFSET -29.972300 0.000000 0.000000
							CHANNELS 3 Xrotation Yrotation Zrotation
							JOINT RightHand
							{
								OFFSET -26.026505 0.000000 0.000000
								CHANNELS 3 Xrotation Yrotation Zrotation
								JOINT RightHandThumb1
								{
									OFFSET -12.240601 -7.148026 9.207092
									CHANNELS 3 Xrotation Yrotation Zrotation
									JOINT RightHandThumb2
									{
										OFFSET -4.138618 -2.389435 2.389433
										CHANNELS 3 Xrotation Yrotation Zrotation
										JOINT RightHandThumb3
										{
											OFFSET -2.726974 -1.574417 1.574421
											CHANNELS 3 Xrotation Yrotation Zrotation
											JOINT RightHandThumb4
											{
												OFFSET -3.941010 -2.275345 2.275343
												CHANNELS 3 Xrotation Yrotation Zrotation
												End Site
												{
													OFFSET 0.005814 5.087799 0.009927
												}
											}
										}
									}
								}
								JOINT RightHandIndex1
								{
									OFFSET -24.424698 -1.985657 5.953444
									CHANNELS 3 Xrotation Yrotation Zrotation
									JOINT RightHandIndex2
									{
										OFFSET -6.426697 0.000000 0.000000
										CHANNELS 3 Xrotation Yrotation Zrotation
										JOINT RightHandIndex3
										{
											OFFSET -5.337898 0.000000 0.000000
											CHANNELS 3 Xrotation Yrotation Zrotation
											JOINT RightHandIndex4
											{
												OFFSET -4.409401 0.000000 0.000000
												CHANNELS 3 Xrotation Yrotation Zrotation
												End Site
												{
													OFFSET 0.000000 4.409363 0.014408
												}
											}
										}
									}
								}
								JOINT RightHandMiddle1
								{
									OFFSET -23.810097 0.000000 0.000000
									CHANNELS 3 Xrotation Yrotation Zrotation
									JOINT RightHandMiddle2
									{
										OFFSET -7.176498 0.000000 0.000000
										CHANNELS 3 Xrotation Yrotation Zrotation
										JOINT RightHandMiddle3
										{
											OFFSET -6.774902 0.000000 0.000000
											CHANNELS 3 Xrotation Yrotation Zrotation
											JOINT RightHandMiddle4
											{
												OFFSET -5.403328 0.000000 0.000000
												CHANNELS 3 Xrotation Yrotation Zrotation
												End Site
												{
													OFFSET 0.027702 5.403244 0.017457
												}
											}
										}
									}
								}
								JOINT RightHandRing1
								{
									OFFSET -22.908302 -0.839325 -6.020576
									CHANNELS 3 Xrotation Yrotation Zrotation
									JOINT RightHandRing2
									{
										OFFSET -6.337502 0.000000 0.000000
										CHANNELS 3 Xrotation Yrotation Zrotation
										JOINT RightHandRing3
										{
											OFFSET -5.779297 0.000000 0.000000
											CHANNELS 3 Xrotation Yrotation Zrotation
											JOINT RightHandRing4
											{
												OFFSET -4.965698 0.000000 0.000000
												CHANNELS 3 Xrotation Yrotation Zrotation
												End Site
												{
													OFFSET 0.000000 4.965668 0.016226
												}
											}
										}
									}
								}
								JOINT RightHandPinky1
								{
									OFFSET -20.037003 -1.530334 -10.950259
									CHANNELS 3 Xrotation Yrotation Zrotation
									JOINT RightHandPinky2
									{
										OFFSET -5.254700 0.000000 0.000000
										CHANNELS 3 Xrotation Yrotation Zrotation
										JOINT RightHandPinky3
										{
											OFFSET -4.810204 0.000000 0.000000
											CHANNELS 3 Xrotation Yrotation Zrotation
											JOINT RightHandPinky4
											{
												OFFSET -3.647202 0.000000 0.000000
												CHANNELS 3 Xrotation Yrotation Zrotation
												End Site
												{
													OFFSET 0.000000 3.647186 0.011917
												}
											}
										}
									}
								}
							}
						}
					}
				}
			}
		}
	}
	JOINT LeftUpLeg
	{
		OFFSET 15.427100 -6.655098 0.678600
		CHANNELS 3 Xrotation Yrotation Zrotation
		JOINT LeftLeg
		{
			OFFSET 4.081073 -39.591068 13.024000
			CHANNELS 3 Xrotation Yrotation Zrotation
			JOINT LeftFoot
			{
				OFFSET -4.081074 -37.707932 -15.979700
				CHANNELS 3 Xrotation Yrotation Zrotation
				JOINT LeftToeBase
				{
					OFFSET 5.346399 -15.068900 20.645000
					CHANNELS 3 Xrotation Yrotation Zrotation
					JOINT LeftToe_End
					{
						OFFSET 2.754700 0.931300 11.300900
						CHANNELS 3 Xrotation Yrotation Zrotation
						End Site
						{
							OFFSET 0.000000 11.669021 0.000000
						}
					}
				}
			}
		}
	}
	JOINT RightUpLeg
	{
		OFFSET -15.569500 -6.655098 0.678600
		CHANNELS 3 Xrotation Yrotation Zrotation
		JOINT RightLeg
		{
			OFFSET -4.081825 -39.591045 13.023800
			CHANNELS 3 Xrotation Yrotation Zrotation
			JOINT RightFoot
			{
				OFFSET 4.081824 -37.707954 -15.979600
				CHANNELS 3 Xrotation Yrotation Zrotation
				JOINT RightToeBase
				{
					OFFSET -5.346400 -15.068900 20.645000
					CHANNELS 3 Xrotation Yrotation Zrotation
					JOINT RightToe_End
					{
						OFFSET -2.754700 0.931300 11.300900
						CHANNELS 3 Xrotation Yrotation Zrotation
						End Site
						{
							OFFSET 0.000000 11.669021 0.000000
						}
					}
				}
			}
		}
	}
}
MOTION
Frames: 4
Frame Time: 0.033333
1.867263 96.290535 1.235780 -6.344919 -5.547928 -4.463210 2.791933 1.402619 2.863664 0.262941 0.185538 1.553134 0.236375 0.207612 1.558175 4.511866 -1.361943 4.988059 -10.458926 -6.811430 11.279836 -0.000001 -0.000000 0.000002 1.886905 -16.298512 -6.168236 0.683877 -18.586847 -76.626499 0.000005 -0.466773 0.000008 -34.202753 -5.220561 -3.021703 2.015183 4.418072 4.564668 11.553489 25.206451 18.113733 -14.223586 3.974170 9.589142 -0.000001 -0.000001 0.000001 1.831554 -0.563130 -3.704163 0.266536 1.748617 -17.331950 0.056955 0.815782 -7.987070 0.000000 0.000000 -0.000002 0.177774 3.521174 -13.011597 0.253773 1.707196 -16.908649 0.285010 1.806734 -17.927575 -0.000001 0.000001 0.000004 0.366605 4.231475 -16.434583 0.026126 0.553267 -5.407133 0.004322 0.225220 -2.198311 0.000001 -0.000000 -0.000000 0.969745 5.675348 -25.807774 0.161602 1.367885 -13.474632 0.139856 1.273756 -12.531416 -0.000000 -0.000001 -0.000003 1.714280 14.443507 10.735825 10.952539 27.383962 62.285048 -0.000009 5.695116 -0.000003 -18.874731 -0.231391 7.669656 -2.507195 -0.339865 -5.173360 12.906296 -29.905130 -15.561191 -14.873128 -3.184645 -11.615881 -0.000000 0.000001 -0.000001 0.614280 0.564808 5.792919 0.209730 -1.383262 17.242785 0.044166 -0.640527 7.888016 0.000001 0.000000 -0.000000 -0.156834 -2.245825 16.295477 0.260308 -1.536689 19.227112 0.288049 -1.614033 20.236527 0.000001 0.000001 -0.000003 -0.150277 -2.667606 21.582259 0.325301 -1.711646 21.520213 0.240742 -1.479429 18.483820 -0.000000 0.000001 -0.000002 0.813890 -4.996051 25.748005 0.209411 -1.382206 17.229188 0.188217 -1.311942 16.327806 -0.000001 -0.000001 0.000005 -8.469569 15.365173 11.998063 16.880230 1.375879 4.148799 -2.919671 0.914079 -8.342134 -5.016844 -0.000003 0.000001 -0.000000 0.000000 -0.000000 5.332423 -10.108421 1.012548 10.974786 -7.911861 -2.587355 -7.921366 -3.144068 6.110008 -7.309101 0.000003 0.000003 0.000000 0.000000 0.000000 
1.842792 96.328522 1.140594 -6.234508 -5.523923 -4.467399 2.807437 1.393975 2.850971 0.291354 0.168887 1.527711 0.264850 0.191299 1.532547 4.514585 -1.343818 4.868616 -9.624625 -6.608063 11.258512 -0.000000 0.000000 -0.000000 1.858871 -16.424658 -6.385765 0.737682 -18.607104 -76.398719 -0.000006 -0.400229 -0.000005 -33.997721 -5.065095 -3.045378 1.623929 4.152059 4.647637 11.584347 25.227985 18.012616 -14.181713 3.930761 9.531889 0.000000 -0.000001 -0.000002 1.528508 -0.644024 -4.419811 0.266870 1.749683 -17.342911 0.057131 0.817037 -7.999374 -0.000000 0.000000 -0.000001 0.141371 3.368725 -13.209996 0.254773 1.710495 -16.942312 0.285942 1.809601 -17.957057 -0.000002 0.000000 0.000001 0.345652 4.158713 -16.681059 0.034077 0.631666 -6.176233 0.007936 0.305125 -2.978887 0.000001 -0.000001 -0.000002 0.971270 5.679526 -25.776195 0.159128 1.357533 -13.370701 0.137533 1.263247 -12.426316 -0.000000 -0.000000 -0.000002 1.700007 14.444590 10.855040 11.163282 27.262966 62.343440 -0.000002 5.448204 -0.000005 -18.599734 -0.725255 7.909893 -2.543629 -0.347032 -5.211842 12.917420 -29.908801 -15.529029 -14.856522 -3.169657 -11.577752 0.000001 0.000002 -0.000000 0.630542 0.590010 5.457238 0.210563 -1.385909 17.276750 0.044548 -0.643264 7.922005 -0.000001 0.000000 0.000001 -0.145109 -2.246026 15.828309 0.257792 -1.529482 19.133317 0.285419 -1.606872 20.142829 0.000001 0.000001 0.000001 -0.139303 -2.668742 21.182881 0.322263 -1.703935 21.418310 0.238091 -1.471474 18.380905 -0.000001 0.000002 -0.000001 0.821599 -5.019370 25.391985 0.208950 -1.380725 17.210041 0.187781 -1.310441 16.308649 -0.000000 -0.000000 0.000000 -8.603766 15.318649 12.014292 16.755499 1.371534 4.143706 -2.791153 0.914546 -8.334862 -5.022985 -0.000005 -0.000000 0.000000 -0.000000 -0.000000 5.240951 -10.092374 1.089654 10.831807 -7.962637 -2.603822 -7.862518 -3.142345 6.021464 -7.290154 0.000005 0.000001 -0.000000 0.000000 -0.000000 
1.813041 96.369652 1.043764 -6.157240 -5.528895 -4.474650 2.817963 1.387596 2.840282 0.307911 0.156969 1.502730 0.281458 0.179583 1.507525 4.697583 -1.312977 4.739605 -8.439286 -6.324809 11.188789 -0.000000 -0.000001 -0.000001 1.828716 -16.493348 -6.607868 0.823626 -18.614024 -76.152470 -0.000008 -0.339116 -0.000024 -33.874412 -4.843711 -3.193453 1.108723 3.858814 4.797434 11.630877 25.261458 17.854605 -14.124028 3.867367 9.457806 0.000000 0.000001 -0.000000 1.200918 -0.714663 -5.256102 0.267241 1.750877 -17.355103 0.057324 0.818415 -8.012994 0.000001 0.000000 -0.000002 0.097633 3.195768 -13.544228 0.255959 1.714378 -16.982002 0.287069 1.813076 -17.992737 -0.000000 -0.000000 -0.000002 0.321344 4.077494 -16.979869 0.043897 0.716599 -7.010650 0.013073 0.391578 -3.824021 -0.000000 -0.000000 0.000001 0.972716 5.683458 -25.747585 0.156852 1.347927 -13.274339 0.135392 1.253492 -12.328852 -0.000000 -0.000001 -0.000003 1.678238 14.455464 11.015176 11.396249 27.158439 62.320634 -0.000006 5.263137 -0.000001 -18.387407 -1.133668 8.149906 -2.574310 -0.350220 -5.236714 12.930482 -29.915378 -15.490859 -14.844733 -3.155512 -11.552349 0.000001 0.000000 -0.000002 0.638639 0.600610 5.303570 0.211400 -1.388610 17.311514 0.044936 -0.646069 7.956743 0.000001 0.000001 -0.000000 -0.140010 -2.245072 15.608116 0.255731 -1.523528 19.056037 0.283254 -1.600970 20.065605 -0.000001 0.000000 0.000002 -0.134547 -2.667613 20.981650 0.320071 -1.698317 21.344249 0.236182 -1.465724 18.306357 -0.000002 -0.000001 0.000001 0.817432 -5.016884 25.255760 0.209579 -1.382747 17.236283 0.188378 -1.312494 16.334817 0.000001 -0.000001 -0.000000 -8.687662 15.277783 12.039748 16.615400 1.386004 4.136647 -2.657486 0.919578 -8.343284 -5.030714 -0.000001 -0.000001 -0.000000 -0.000000 -0.000000 5.187190 -10.083320 1.167258 10.671298 -7.985983 -2.614580 -7.795451 -3.138811 5.928093 -7.281448 0.000003 0.000002 0.000000 0.000002 -0.000000 
1.779454 96.415947 0.943511 -6.100339 -5.563125 -4.484128 2.827160 1.384939 2.834543 0.318692 0.147603 1.482270 0.292274 0.170438 1.487109 5.037244 -1.261457 4.582941 -7.205746 -5.964482 10.979121 0.000000 -0.000000 0.000001 1.794857 -16.511600 -6.848530 0.953812 -18.600745 -75.882951 -0.000001 -0.318765 0.000004 -33.914256 -4.619581 -3.465988 0.600483 3.608505 4.974842 11.679668 25.296637 17.687297 -14.067918 3.803110 9.388887 -0.000001 -0.000000 0.000002 0.941597 -0.758007 -5.963891 0.267626 1.752105 -17.367655 0.057519 0.819799 -8.026613 -0.000001 -0.000001 -0.000003 0.057398 3.048891 -13.927117 0.256942 1.717589 -17.014763 0.288021 1.816006 -18.022842 -0.000001 -0.000000 0.000000 0.299390 4.007266 -17.280452 0.054939 0.801274 -7.844099 0.019487 0.477977 -4.669523 0.000000 -0.000000 -0.000001 0.974103 5.687164 -25.722136 0.154783 1.339126 -13.186068 0.133442 1.244561 -12.239592 -0.000001 0.000000 -0.000002 1.645517 14.449779 11.229299 11.627379 27.070809 62.228119 0.000003 5.153787 -0.000024 -18.309261 -1.331737 8.292022 -2.598350 -0.353097 -5.245637 12.947093 -29.923670 -15.442339 -14.837930 -3.139179 -11.543608 -0.000001 0.000001 0.000002 0.640090 0.599871 5.295378 0.211798 -1.389874 17.327836 0.045118 -0.647388 7.973059 0.000001 0.000001 0.000001 -0.139898 -2.244161 15.593127 0.254125 -1.518875 18.995516 0.281567 -1.596334 20.005102 -0.000000 0.000001 0.000004 -0.134469 -2.665520 20.947470 0.318714 -1.694849 21.298494 0.235007 -1.462172 18.260485 0.000000 0.000000 -0.000002 0.805066 -4.993522 25.307500 0.210927 -1.387088 17.291954 0.189654 -1.316840 16.390511 0.000002 -0.000001 0.000003 -8.733437 15.244086 12.071358 16.455579 1.423714 4.126856 -2.517840 0.928039 -8.362876 -5.033566 -0.000000 -0.000002 0.000000 0.000000 0.000000 5.158869 -10.074853 1.245088 10.484614 -7.984713 -2.624379 -7.712809 -3.134351 5.839432 -7.278630 0.000004 0.000001 0.000000 -0.000001 -0.000000 
